<svg id="Layer_1" data-name="Layer 1" xmlns="http://www.w3.org/2000/svg" viewBox="0 0 67.86 67.86"><defs><style>.cls-1{fill:#fff;}.cls-2{fill:#b7295a;}</style></defs><title>bottle-circle</title><circle class="cls-1" cx="33.93" cy="33.93" r="33.93"/><path class="cls-2" d="M492.56,296.09c-1.61-7.39-.27-10.18,0-13.87s-1.48-6.7-3.65-6.7c-0.05,0,0-3.76,0-3.76a1.83,1.83,0,0,0-1.82-1.82h-0.5a5.31,5.31,0,0,0-2.61-4l-0.53-.39c-0.88-.69-1.11-1.85-0.75-3.76a4,4,0,0,0-.34-3.24,3,3,0,0,0-2.38-1,3,3,0,0,0-2.31,1,4,4,0,0,0-.34,3.24c0.36,1.91.13,3.07-.75,3.76l-0.52.39a5.3,5.3,0,0,0-2.61,4h-0.51a1.83,1.83,0,0,0-1.82,1.82s0.05,3.76,0,3.76c-2.17,0-3.9,3-3.65,6.7s1.6,6.48,0,13.87,3.36,8.42,4.83,8.42h15.46C489.19,304.5,494.17,303.47,492.56,296.09ZM488.49,300a2.43,2.43,0,0,1-1.73.83H473.24a2.43,2.43,0,0,1-1.73-.83c-0.75-1-.58-2.71-0.31-4a27.14,27.14,0,0,0,.33-11c-0.11-.77-0.22-1.51-0.27-2.25-0.15-2.17.67-3.48,1-3.62h15.51a3.62,3.62,0,0,1,.94,2.48,1.43,1.43,0,0,0-.51-0.1c-0.76,0-2.87.59-2.87,1.31s2.11,1.3,2.87,1.3a1.36,1.36,0,0,0,.39-0.06c0,0.31-.08.62-0.13,0.93s-0.11.77-.16,1.17h-0.1c-0.76,0-2.87.59-2.87,1.3s1.78,1.25,2.74,1.3c0,0.63,0,1.3,0,2-0.94,0-2.76.61-2.76,1.3s2.11,1.3,2.87,1.3h0.13c0.09,0.66.21,1.37,0.36,2.13a1.4,1.4,0,0,0-.5-0.09c-0.76,0-2.87.58-2.87,1.31s2.11,1.31,2.87,1.31a1.43,1.43,0,0,0,.82-0.26A3.52,3.52,0,0,1,488.49,300Z" transform="translate(-446.07 -246.66)"/></svg>