<svg id="icons" xmlns="http://www.w3.org/2000/svg" viewBox="0 0 24.03 43.87"><defs><style>.cls-1{fill:#fff;}</style></defs><title>bottle</title><path class="cls-1" d="M173.72,84.08c-1.51-6.89-.26-9.5,0-12.94s-1.38-6.26-3.41-6.26c0,0,0-3.51,0-3.51a1.71,1.71,0,0,0-1.7-1.7h-0.47a5,5,0,0,0-2.44-3.77l-0.49-.36c-0.82-.64-1-1.73-0.7-3.51a3.73,3.73,0,0,0-.32-3,2.82,2.82,0,0,0-2.22-.95,2.78,2.78,0,0,0-2.15.95,3.72,3.72,0,0,0-.32,3c0.34,1.78.12,2.87-.7,3.51l-0.49.36a5,5,0,0,0-2.44,3.76H155.4a1.71,1.71,0,0,0-1.7,1.7s0,3.51,0,3.51c-2,0-3.64,2.81-3.41,6.26s1.49,6,0,12.94,3.14,7.86,4.5,7.86h14.43C170.58,91.94,175.23,91,173.72,84.08Zm-3.79,3.67a2.26,2.26,0,0,1-1.61.78H155.69a2.26,2.26,0,0,1-1.61-.78c-0.7-.9-0.55-2.53-0.29-3.73a25.33,25.33,0,0,0,.31-10.27c-0.11-.72-0.21-1.41-0.25-2.1-0.14-2,.63-3.25.94-3.37h14.48a3.38,3.38,0,0,1,.88,2.31,1.34,1.34,0,0,0-.48-0.09c-0.71,0-2.68.55-2.68,1.22s2,1.22,2.68,1.22a1.27,1.27,0,0,0,.37-0.06c0,0.29-.08.57-0.12,0.87s-0.11.71-.15,1.09h-0.09c-0.71,0-2.68.55-2.68,1.22s1.67,1.17,2.56,1.21c0,0.59,0,1.21,0,1.9-0.88,0-2.57.57-2.57,1.21s2,1.22,2.68,1.22h0.12c0.09,0.62.2,1.28,0.34,2a1.31,1.31,0,0,0-.46-0.09C169,83.48,167,84,167,84.7s2,1.22,2.68,1.22a1.34,1.34,0,0,0,.76-0.24A3.29,3.29,0,0,1,169.93,87.75Z" transform="translate(-149.98 -48.06)"/></svg>